<svg width="45" height="45" viewBox="0 0 45 45" fill="none" xmlns="http://www.w3.org/2000/svg">
<path d="M33.825 25.4062C33.0375 26.175 32.5875 27.2812 32.7 28.4625C32.8688 30.4875 34.725 31.9687 36.75 31.9687H40.3125V34.2C40.3125 38.0812 37.1437 41.25 33.2625 41.25H14.3062C14.8875 40.7625 15.3937 40.1625 15.7875 39.4875C16.4812 38.3625 16.875 37.0312 16.875 35.625C16.875 31.4812 13.5188 28.125 9.375 28.125C7.6125 28.125 5.98125 28.7438 4.6875 29.775V21.5813C4.6875 17.7 7.85625 14.5312 11.7375 14.5312H33.2625C37.1437 14.5312 40.3125 17.7 40.3125 21.5813V24.2813H36.525C35.475 24.2813 34.5188 24.6937 33.825 25.4062Z" stroke="#069D24" stroke-width="1.5" stroke-linecap="round" stroke-linejoin="round"/>
<path d="M4.6875 23.2687V14.7001C4.6875 12.4688 6.05624 10.4812 8.13749 9.69374L23.025 4.06874C25.35 3.18749 27.8437 4.91255 27.8437 7.4063V14.5313" stroke="#069D24" stroke-width="1.5" stroke-linecap="round" stroke-linejoin="round"/>
<path d="M42.2978 26.194V30.0566C42.2978 31.0879 41.4728 31.9316 40.4228 31.9691H36.7478C34.7228 31.9691 32.8665 30.4878 32.6978 28.4628C32.5853 27.2816 33.0353 26.1753 33.8228 25.4066C34.5165 24.6941 35.4728 24.2816 36.5228 24.2816H40.4228C41.4728 24.3191 42.2978 25.1628 42.2978 26.194Z" stroke="#069D24" stroke-width="1.5" stroke-linecap="round" stroke-linejoin="round"/>
<path d="M13.125 22.5H26.25" stroke="#069D24" stroke-width="1.5" stroke-linecap="round" stroke-linejoin="round"/>
<path d="M16.875 35.625C16.875 37.0312 16.4812 38.3625 15.7875 39.4875C15.3937 40.1625 14.8875 40.7625 14.3062 41.25C12.9937 42.4312 11.2687 43.125 9.375 43.125C6.6375 43.125 4.25625 41.6625 2.9625 39.4875C2.26875 38.3625 1.875 37.0312 1.875 35.625C1.875 33.2625 2.9625 31.1438 4.6875 29.775C5.98125 28.7438 7.6125 28.125 9.375 28.125C13.5188 28.125 16.875 31.4812 16.875 35.625Z" stroke="#069D24" stroke-width="1.5" stroke-miterlimit="10" stroke-linecap="round" stroke-linejoin="round"/>
<path d="M12.172 35.5865H6.58447" stroke="#069D24" stroke-width="1.5" stroke-miterlimit="10" stroke-linecap="round" stroke-linejoin="round"/>
<path d="M9.375 32.8491V38.4554" stroke="#069D24" stroke-width="1.5" stroke-miterlimit="10" stroke-linecap="round" stroke-linejoin="round"/>
</svg>
