<svg width="45" height="45" viewBox="0 0 45 45" fill="none" xmlns="http://www.w3.org/2000/svg">
<path d="M17.8125 25.7813C17.8125 27.6 19.2188 29.0625 20.9438 29.0625H24.4687C25.9687 29.0625 27.1875 27.7875 27.1875 26.1938C27.1875 24.4875 26.4375 23.8688 25.3313 23.475L19.6875 21.5063C18.5813 21.1125 17.8313 20.5125 17.8313 18.7875C17.8313 17.2125 19.05 15.9188 20.55 15.9188H24.075C25.8 15.9188 27.2063 17.3813 27.2063 19.2" stroke="#069D24" stroke-width="1.5" stroke-linecap="round" stroke-linejoin="round"/>
<path d="M22.5 14.0625V30.9375" stroke="#069D24" stroke-width="1.5" stroke-linecap="round" stroke-linejoin="round"/>
<path d="M41.25 22.5C41.25 32.85 32.85 41.25 22.5 41.25C12.15 41.25 3.75 32.85 3.75 22.5C3.75 12.15 12.15 3.75 22.5 3.75" stroke="#069D24" stroke-width="1.5" stroke-linecap="round" stroke-linejoin="round"/>
<path d="M41.25 11.25V3.75H33.75" stroke="#069D24" stroke-width="1.5" stroke-linecap="round" stroke-linejoin="round"/>
<path d="M31.875 13.125L41.25 3.75" stroke="#069D24" stroke-width="1.5" stroke-linecap="round" stroke-linejoin="round"/>
</svg>
